<svg xmlns="http://www.w3.org/2000/svg" version="1.1" xmlns:xlink="http://www.w3.org/1999/xlink" xmlns:svgjs="http://svgjs.dev/svgjs" width="1440" height="800" preserveAspectRatio="none" viewBox="0 0 1440 800"><g mask="url(&quot;#SvgjsMask1031&quot;)" fill="none"><rect width="1440" height="800" x="0" y="0" fill="rgba(21, 56, 93, 1)"></rect><path d="M109.205,268.7C166.588,272.664,221.163,240.263,249.903,190.437C278.623,140.645,279.42,77.13,247.136,29.571C217.935,-13.446,161.058,-20.632,109.205,-16.831C64.761,-13.574,24.781,9.006,2.35,47.512C-20.241,86.292,-20.945,132.665,-1.422,173.076C21.303,220.116,57.087,265.1,109.205,268.7" fill="rgba(28, 83, 142, 0.4)" class="triangle-float3"></path><path d="M17.403791628547893 197.72634571452363L247.80331241168528 48.41513179983329 35.895890125542834-64.25804326878051z" fill="rgba(28, 83, 142, 0.4)" class="triangle-float1"></path><path d="M47.588,129.386C75.889,128.728,100.06,110.565,113.751,85.787C126.973,61.859,127.808,32.838,113.959,9.268C100.286,-14.003,74.502,-24.785,47.588,-26.819C15.601,-29.237,-21.892,-29.55,-38.78,-2.277C-56.166,25.801,-42.239,61.377,-24.125,88.991C-7.996,113.578,18.191,130.069,47.588,129.386" fill="rgba(28, 83, 142, 0.4)" class="triangle-float3"></path><path d="M1411.9746782524078 261.25724365143105L1528.3289871115287 51.34851393797601 1318.4202573980735-65.00579492114485 1202.0659485389529 144.9029347923102z" fill="rgba(28, 83, 142, 0.4)" class="triangle-float1"></path><path d="M1234.6428299156498 150.05570733827142L1358.9861837487651 250.74696990624545 1447.8514006841683 13.886307872585434z" fill="rgba(28, 83, 142, 0.4)" class="triangle-float3"></path><path d="M1151.66 21.66 a150 150 0 1 0 300 0 a150 150 0 1 0 -300 0z" fill="rgba(28, 83, 142, 0.4)" class="triangle-float1"></path><path d="M-77.69 611.03 a48.72 48.72 0 1 0 97.44 0 a48.72 48.72 0 1 0 -97.44 0z" fill="rgba(28, 83, 142, 0.4)" class="triangle-float3"></path><path d="M-80.38 613.71 a54.09 54.09 0 1 0 108.18 0 a54.09 54.09 0 1 0 -108.18 0z" fill="rgba(28, 83, 142, 0.4)" class="triangle-float1"></path><path d="M187.006,1024.924C256.969,1023.695,320.327,984.775,354.786,923.874C388.724,863.894,389.517,789.63,353.327,730.981C318.782,674.998,252.773,650.462,187.006,651.974C124.073,653.421,67.411,685.349,33.423,738.335C-3.846,796.436,-23.913,869.114,8.692,929.955C42.785,993.573,114.84,1026.192,187.006,1024.924" fill="rgba(28, 83, 142, 0.4)" class="triangle-float3"></path><path d="M1219.73 593.6 a13.87 13.87 0 1 0 27.74 0 a13.87 13.87 0 1 0 -27.74 0z" fill="rgba(28, 83, 142, 0.4)" class="triangle-float1"></path><path d="M1404.55,936.384C1461.448,934.518,1501.442,886.192,1528.295,835.994C1553.324,789.207,1561.551,735.085,1537.549,687.763C1511.065,635.548,1463.072,590.298,1404.55,592.02C1348.003,593.683,1311.669,645.617,1284.447,695.208C1258.566,742.355,1241.922,796.457,1265.897,844.601C1292.379,897.778,1345.176,938.332,1404.55,936.384" fill="rgba(28, 83, 142, 0.4)" class="triangle-float1"></path><path d="M1246.5206709624658 870.592155960218L1484.1850074604426 837.1906117298024 1450.783463230027 599.5262752318255 1213.1191267320503 632.927819462241z" fill="rgba(28, 83, 142, 0.4)" class="triangle-float1"></path></g><defs><mask id="SvgjsMask1031"><rect width="1440" height="800" fill="#ffffff"></rect></mask><style>
                @keyframes float1 {
                    0%{transform: translate(0, 0)}
                    50%{transform: translate(-10px, 0)}
                    100%{transform: translate(0, 0)}
                }

                .triangle-float1 {
                    animation: float1 5s infinite;
                }

                @keyframes float2 {
                    0%{transform: translate(0, 0)}
                    50%{transform: translate(-5px, -5px)}
                    100%{transform: translate(0, 0)}
                }

                .triangle-float2 {
                    animation: float2 4s infinite;
                }

                @keyframes float3 {
                    0%{transform: translate(0, 0)}
                    50%{transform: translate(0, -10px)}
                    100%{transform: translate(0, 0)}
                }

                .triangle-float3 {
                    animation: float3 6s infinite;
                }
            </style></defs></svg>