<svg xmlns="http://www.w3.org/2000/svg" version="1.1" xmlns:xlink="http://www.w3.org/1999/xlink" xmlns:svgjs="http://svgjs.dev/svgjs" width="1440" height="800" preserveAspectRatio="none" viewBox="0 0 1440 800"><g mask="url(&quot;#SvgjsMask1029&quot;)" fill="none"><rect width="1440" height="800" x="0" y="0" fill="rgba(34, 58, 82, 1)"></rect><path d="M842.669,331.758C899.061,334.771,957.831,313.716,985.782,264.646C1013.513,215.963,999.839,155.912,969.757,108.646C942.03,65.08,894.303,38.936,842.669,39.782C792.488,40.604,747.241,68.975,722.596,112.695C698.393,155.63,700.113,207.427,723.803,250.647C748.514,295.731,791.33,329.015,842.669,331.758" fill="rgba(28, 83, 142, 0.4)" class="triangle-float3"></path><path d="M605.15 734.6 a178.15 178.15 0 1 0 356.3 0 a178.15 178.15 0 1 0 -356.3 0z" fill="rgba(28, 83, 142, 0.4)" class="triangle-float3"></path><path d="M331.76,811.974C395.935,812.137,464.188,802.339,500.025,749.102C539.734,690.113,547.243,609.499,507.962,550.224C471.531,495.25,397.422,489.036,331.76,495.193C277.715,500.261,234.67,533.33,204.798,578.653C170.546,630.621,135.22,693.581,164.969,748.251C195.459,804.283,267.97,811.812,331.76,811.974" fill="rgba(28, 83, 142, 0.4)" class="triangle-float1"></path><path d="M818.5224536521984 247.11651294931323L958.3812243224597 97.13634346000717 808.4010548331536-42.72242721025418 668.5422841628923 107.25774227905191z" fill="rgba(28, 83, 142, 0.4)" class="triangle-float3"></path><path d="M1285.2748420488242 644.988212483089L1444.584741812531 653.3372905475088 1452.9338198769508 494.02739078380193 1293.623920113244 485.6783127193821z" fill="rgba(28, 83, 142, 0.4)" class="triangle-float2"></path><path d="M473.674,397.476C497.08,397.022,517.336,383.414,529.738,363.559C543.043,342.258,550.402,315.881,538.433,293.802C526.006,270.879,499.747,259.787,473.674,260.142C448.243,260.489,424.455,273.407,411.903,295.527C399.506,317.373,400.694,344.329,413.71,365.811C426.265,386.531,449.452,397.946,473.674,397.476" fill="rgba(28, 83, 142, 0.4)" class="triangle-float2"></path><path d="M1026.94 769.81 a145.34 145.34 0 1 0 290.68 0 a145.34 145.34 0 1 0 -290.68 0z" fill="rgba(28, 83, 142, 0.4)" class="triangle-float2"></path><path d="M1437.421,544.649C1479.667,544.317,1508.317,506.999,1529.488,470.44C1550.725,433.768,1569.186,390.142,1548.222,353.314C1527.111,316.228,1480.035,306.434,1437.421,308.7C1399.073,310.74,1364.571,330.883,1345.312,364.106C1325.992,397.435,1325.305,437.592,1342.812,471.908C1362.188,509.887,1394.786,544.984,1437.421,544.649" fill="rgba(28, 83, 142, 0.4)" class="triangle-float2"></path><path d="M497.99 332.35 a195.91 195.91 0 1 0 391.82 0 a195.91 195.91 0 1 0 -391.82 0z" fill="rgba(28, 83, 142, 0.4)" class="triangle-float3"></path></g><defs><mask id="SvgjsMask1029"><rect width="1440" height="800" fill="#ffffff"></rect></mask><style>
                @keyframes float1 {
                    0%{transform: translate(0, 0)}
                    50%{transform: translate(-10px, 0)}
                    100%{transform: translate(0, 0)}
                }

                .triangle-float1 {
                    animation: float1 5s infinite;
                }

                @keyframes float2 {
                    0%{transform: translate(0, 0)}
                    50%{transform: translate(-5px, -5px)}
                    100%{transform: translate(0, 0)}
                }

                .triangle-float2 {
                    animation: float2 4s infinite;
                }

                @keyframes float3 {
                    0%{transform: translate(0, 0)}
                    50%{transform: translate(0, -10px)}
                    100%{transform: translate(0, 0)}
                }

                .triangle-float3 {
                    animation: float3 6s infinite;
                }
            </style></defs></svg>