<svg xmlns="http://www.w3.org/2000/svg" version="1.1" xmlns:xlink="http://www.w3.org/1999/xlink" xmlns:svgjs="http://svgjs.dev/svgjs" width="1440" height="760" preserveAspectRatio="none" viewBox="0 0 1440 760"><g mask="url(&quot;#SvgjsMask1103&quot;)" fill="none"><rect width="1440" height="760" x="0" y="0" fill="rgba(11, 44, 78, 1)"></rect><path d="M0,596.741C110.866,582.647,205.371,525.305,304.802,474.282C415.512,417.471,547.315,385.219,615.302,280.999C686.602,171.7,720.247,25.943,677.765,-97.448C636.428,-217.515,496.902,-264.727,399.406,-346.087C319.388,-412.861,247.591,-482.147,156.37,-532.549C42.285,-595.585,-74.679,-716.788,-198.647,-676.531C-323.421,-636.013,-335.142,-461.837,-404.428,-350.438C-461.006,-259.472,-561.608,-188.648,-568.582,-81.75C-575.461,23.686,-473.269,100.709,-440.412,201.13C-401.616,319.7,-451.848,475.305,-359.038,558.674C-267.655,640.761,-121.857,612.232,0,596.741" fill="#071d33"></path><path d="M1440 1361.385C1557.185 1389.116 1685.464 1364.531 1789.149 1303.286 1894.622 1240.9850000000001 1985.049 1141.205 2014.184 1022.221 2041.88 909.116 1961.04 802.632 1939.777 688.143 1919.66 579.828 1952.438 460.311 1892.6399999999999 367.785 1829.9560000000001 270.793 1723.6190000000001 202.77999999999997 1610.638 178.861 1501.1 155.67100000000005 1386.659 188.188 1287.2 239.61 1198.464 285.488 1157.505 383.942 1083.724 451.285 996.711 530.705 841.099 555.222 815.443 670.202 790.156 783.53 896.887 883.335 966.5989999999999 976.1949999999999 1024.579 1053.4279999999999 1108.121 1098.901 1183.031 1159.8519999999999 1269.214 1229.976 1331.879 1335.799 1440 1361.385" fill="#0f3b69"></path></g><defs><mask id="SvgjsMask1103"><rect width="1440" height="760" fill="#ffffff"></rect></mask></defs></svg>